<mxfile host="app.diagrams.net" modified="2020-08-04T20:38:32.141Z" agent="5.0 (Windows NT 10.0; Win64; x64) AppleWebKit/537.36 (KHTML, like Gecko) Chrome/83.0.4103.116 Safari/537.36 OPR/69.0.3686.95" etag="giLlhI1x8jXKCp0QRP-L" version="13.5.9" type="github">
  <diagram id="C5RBs43oDa-KdzZeNtuy" name="Page-1">
    <mxGraphModel dx="998" dy="2886" grid="1" gridSize="10" guides="1" tooltips="1" connect="1" arrows="1" fold="1" page="1" pageScale="1" pageWidth="827" pageHeight="1169" math="0" shadow="0">
      <root>
        <mxCell id="WIyWlLk6GJQsqaUBKTNV-0" />
        <mxCell id="WIyWlLk6GJQsqaUBKTNV-1" parent="WIyWlLk6GJQsqaUBKTNV-0" />
        <mxCell id="zYxVCt5k7DX0h2k_nA6i-33" style="edgeStyle=orthogonalEdgeStyle;rounded=0;orthogonalLoop=1;jettySize=auto;html=1;exitX=0.5;exitY=1;exitDx=0;exitDy=0;entryX=0.5;entryY=0;entryDx=0;entryDy=0;" edge="1" parent="WIyWlLk6GJQsqaUBKTNV-1" source="WIyWlLk6GJQsqaUBKTNV-3" target="zYxVCt5k7DX0h2k_nA6i-28">
          <mxGeometry relative="1" as="geometry" />
        </mxCell>
        <mxCell id="WIyWlLk6GJQsqaUBKTNV-3" value="uygulamaya girdik" style="rounded=1;whiteSpace=wrap;html=1;fontSize=12;glass=0;strokeWidth=1;shadow=0;" parent="WIyWlLk6GJQsqaUBKTNV-1" vertex="1">
          <mxGeometry x="274" y="-2030" width="120" height="40" as="geometry" />
        </mxCell>
        <mxCell id="zYxVCt5k7DX0h2k_nA6i-27" value="Lamp&lt;br&gt;plugged in?" style="rhombus;whiteSpace=wrap;html=1;shadow=0;fontFamily=Helvetica;fontSize=12;align=center;strokeWidth=1;spacing=6;spacingTop=-4;" vertex="1" parent="WIyWlLk6GJQsqaUBKTNV-1">
          <mxGeometry x="530" y="-2120" width="100" height="80" as="geometry" />
        </mxCell>
        <mxCell id="zYxVCt5k7DX0h2k_nA6i-32" style="edgeStyle=orthogonalEdgeStyle;rounded=0;orthogonalLoop=1;jettySize=auto;html=1;exitX=1;exitY=0.5;exitDx=0;exitDy=0;entryX=0;entryY=0;entryDx=0;entryDy=50;entryPerimeter=0;" edge="1" parent="WIyWlLk6GJQsqaUBKTNV-1" source="zYxVCt5k7DX0h2k_nA6i-28" target="zYxVCt5k7DX0h2k_nA6i-29">
          <mxGeometry relative="1" as="geometry" />
        </mxCell>
        <mxCell id="zYxVCt5k7DX0h2k_nA6i-37" style="edgeStyle=orthogonalEdgeStyle;rounded=0;orthogonalLoop=1;jettySize=auto;html=1;exitX=0.5;exitY=1;exitDx=0;exitDy=0;entryX=0.5;entryY=0;entryDx=0;entryDy=0;" edge="1" parent="WIyWlLk6GJQsqaUBKTNV-1" source="zYxVCt5k7DX0h2k_nA6i-28" target="zYxVCt5k7DX0h2k_nA6i-36">
          <mxGeometry relative="1" as="geometry" />
        </mxCell>
        <mxCell id="zYxVCt5k7DX0h2k_nA6i-28" value="olsun günaydın orhan (saat e göre tepki versin" style="rounded=1;whiteSpace=wrap;html=1;fontSize=12;glass=0;strokeWidth=1;shadow=0;" vertex="1" parent="WIyWlLk6GJQsqaUBKTNV-1">
          <mxGeometry x="274" y="-1900" width="120" height="40" as="geometry" />
        </mxCell>
        <mxCell id="zYxVCt5k7DX0h2k_nA6i-29" value="&lt;span&gt;giriş ekranında günaydın orhan (saat e göre tepki versin&lt;/span&gt;" style="shape=card;whiteSpace=wrap;html=1;size=0;" vertex="1" parent="WIyWlLk6GJQsqaUBKTNV-1">
          <mxGeometry x="500" y="-1930" width="80" height="100" as="geometry" />
        </mxCell>
        <mxCell id="zYxVCt5k7DX0h2k_nA6i-35" value="uygulamaya girdik" style="rounded=1;whiteSpace=wrap;html=1;fontSize=12;glass=0;strokeWidth=1;shadow=0;" vertex="1" parent="WIyWlLk6GJQsqaUBKTNV-1">
          <mxGeometry x="530" y="-2190" width="120" height="40" as="geometry" />
        </mxCell>
        <mxCell id="zYxVCt5k7DX0h2k_nA6i-40" style="edgeStyle=orthogonalEdgeStyle;rounded=0;orthogonalLoop=1;jettySize=auto;html=1;exitX=0.5;exitY=1;exitDx=0;exitDy=0;entryX=0;entryY=0.5;entryDx=0;entryDy=0;" edge="1" parent="WIyWlLk6GJQsqaUBKTNV-1" source="zYxVCt5k7DX0h2k_nA6i-36" target="zYxVCt5k7DX0h2k_nA6i-38">
          <mxGeometry relative="1" as="geometry" />
        </mxCell>
        <mxCell id="zYxVCt5k7DX0h2k_nA6i-44" style="edgeStyle=orthogonalEdgeStyle;rounded=0;orthogonalLoop=1;jettySize=auto;html=1;exitX=0.5;exitY=1;exitDx=0;exitDy=0;entryX=0;entryY=0.5;entryDx=0;entryDy=0;" edge="1" parent="WIyWlLk6GJQsqaUBKTNV-1" source="zYxVCt5k7DX0h2k_nA6i-36" target="zYxVCt5k7DX0h2k_nA6i-43">
          <mxGeometry relative="1" as="geometry" />
        </mxCell>
        <mxCell id="zYxVCt5k7DX0h2k_nA6i-47" style="edgeStyle=orthogonalEdgeStyle;rounded=0;orthogonalLoop=1;jettySize=auto;html=1;entryX=0;entryY=0.5;entryDx=0;entryDy=0;" edge="1" parent="WIyWlLk6GJQsqaUBKTNV-1" source="zYxVCt5k7DX0h2k_nA6i-36" target="zYxVCt5k7DX0h2k_nA6i-46">
          <mxGeometry relative="1" as="geometry" />
        </mxCell>
        <mxCell id="zYxVCt5k7DX0h2k_nA6i-49" style="edgeStyle=orthogonalEdgeStyle;rounded=0;orthogonalLoop=1;jettySize=auto;html=1;entryX=0;entryY=0.5;entryDx=0;entryDy=0;" edge="1" parent="WIyWlLk6GJQsqaUBKTNV-1" source="zYxVCt5k7DX0h2k_nA6i-36" target="zYxVCt5k7DX0h2k_nA6i-48">
          <mxGeometry relative="1" as="geometry" />
        </mxCell>
        <mxCell id="zYxVCt5k7DX0h2k_nA6i-36" value="ana menü" style="rounded=1;whiteSpace=wrap;html=1;fontSize=12;glass=0;strokeWidth=1;shadow=0;" vertex="1" parent="WIyWlLk6GJQsqaUBKTNV-1">
          <mxGeometry x="274" y="-1760" width="120" height="40" as="geometry" />
        </mxCell>
        <mxCell id="zYxVCt5k7DX0h2k_nA6i-42" style="edgeStyle=orthogonalEdgeStyle;rounded=0;orthogonalLoop=1;jettySize=auto;html=1;exitX=1;exitY=0.5;exitDx=0;exitDy=0;entryX=0;entryY=0.5;entryDx=0;entryDy=0;" edge="1" parent="WIyWlLk6GJQsqaUBKTNV-1" source="zYxVCt5k7DX0h2k_nA6i-38" target="zYxVCt5k7DX0h2k_nA6i-41">
          <mxGeometry relative="1" as="geometry" />
        </mxCell>
        <mxCell id="zYxVCt5k7DX0h2k_nA6i-38" value="kalori hesaplama" style="rhombus;whiteSpace=wrap;html=1;shadow=0;fontFamily=Helvetica;fontSize=12;align=center;strokeWidth=1;spacing=6;spacingTop=-4;" vertex="1" parent="WIyWlLk6GJQsqaUBKTNV-1">
          <mxGeometry x="370" y="-1660" width="100" height="80" as="geometry" />
        </mxCell>
        <mxCell id="zYxVCt5k7DX0h2k_nA6i-41" value="ürün seç" style="rounded=1;whiteSpace=wrap;html=1;fontSize=12;glass=0;strokeWidth=1;shadow=0;" vertex="1" parent="WIyWlLk6GJQsqaUBKTNV-1">
          <mxGeometry x="540" y="-1640" width="120" height="40" as="geometry" />
        </mxCell>
        <mxCell id="zYxVCt5k7DX0h2k_nA6i-43" value="not al" style="rhombus;whiteSpace=wrap;html=1;shadow=0;fontFamily=Helvetica;fontSize=12;align=center;strokeWidth=1;spacing=6;spacingTop=-4;" vertex="1" parent="WIyWlLk6GJQsqaUBKTNV-1">
          <mxGeometry x="370" y="-1500" width="100" height="80" as="geometry" />
        </mxCell>
        <mxCell id="zYxVCt5k7DX0h2k_nA6i-46" value="yemek tarifi" style="rhombus;whiteSpace=wrap;html=1;shadow=0;fontFamily=Helvetica;fontSize=12;align=center;strokeWidth=1;spacing=6;spacingTop=-4;" vertex="1" parent="WIyWlLk6GJQsqaUBKTNV-1">
          <mxGeometry x="370" y="-1340" width="100" height="80" as="geometry" />
        </mxCell>
        <mxCell id="zYxVCt5k7DX0h2k_nA6i-48" value="spor salonları" style="rhombus;whiteSpace=wrap;html=1;shadow=0;fontFamily=Helvetica;fontSize=12;align=center;strokeWidth=1;spacing=6;spacingTop=-4;" vertex="1" parent="WIyWlLk6GJQsqaUBKTNV-1">
          <mxGeometry x="370" y="-1180" width="100" height="80" as="geometry" />
        </mxCell>
        <mxCell id="zYxVCt5k7DX0h2k_nA6i-52" style="edgeStyle=orthogonalEdgeStyle;rounded=0;orthogonalLoop=1;jettySize=auto;html=1;exitX=0.5;exitY=1;exitDx=0;exitDy=0;exitPerimeter=0;" edge="1" parent="WIyWlLk6GJQsqaUBKTNV-1" source="zYxVCt5k7DX0h2k_nA6i-50" target="zYxVCt5k7DX0h2k_nA6i-51">
          <mxGeometry relative="1" as="geometry" />
        </mxCell>
        <mxCell id="zYxVCt5k7DX0h2k_nA6i-50" value="bu uygulamada zenginler için yaşam merkezi sunucam&amp;nbsp;" style="shape=note;whiteSpace=wrap;html=1;backgroundOutline=1;darkOpacity=0.05;size=0;" vertex="1" parent="WIyWlLk6GJQsqaUBKTNV-1">
          <mxGeometry x="110" y="-1650" width="80" height="100" as="geometry" />
        </mxCell>
        <mxCell id="zYxVCt5k7DX0h2k_nA6i-51" value="Zengin" style="shape=umlActor;verticalLabelPosition=bottom;verticalAlign=top;html=1;outlineConnect=0;" vertex="1" parent="WIyWlLk6GJQsqaUBKTNV-1">
          <mxGeometry x="135" y="-1520" width="30" height="60" as="geometry" />
        </mxCell>
      </root>
    </mxGraphModel>
  </diagram>
</mxfile>
